#!OML:ASF F:\VICON\USERDATA\INSTALL\rory3\rory3.ASF
:FULLY-SPECIFIED
:DEGREES
28
root 0.0994010457704862 18.026173540080485 2.1141288364956132 -3.307096525824994 1.4305335085792397 -1.370368083350907
lfemur 8.670144288249604 -4.767305471838165 -21.02579350340973
ltibia 39.469516877517286
lfoot -0.7508411666600248 -13.65737535339644
ltoes -19.28812547764199
rfemur -21.682220706399107 4.016280506891891 23.65692894178103
rtibia 29.629884940999073
rfoot -4.498333702247944 -1.8384312755240275
rtoes 8.63447955734243
lowerback 8.853196283177144 -1.9908731564402167 -0.624505368350107
upperback 0.04603154577515994 -2.5627009942343886 2.2500159933211643
thorax -4.66022363591276 -1.2541647441366894 3.125013588111818
lowerneck -16.397742112008153 -2.694438384835557 -1.8007489915359534
upperneck 22.157131856383067 -3.2630967111690663 -0.5224917134108908
head 9.818049671739725 -1.7082108867567043 -0.27864212404639654
lclavicle -4.530610226347706e-16 -7.767244799138612e-16
lhumerus -27.573300050249784 1.1558544036539597 82.53821776204732
lradius 28.593678615470658
lwrist 6.945143641328578
lhand -28.13908064251968 23.349532195576245
lfingers 7.12502
lthumb -1.4982816137355304 53.556240817708066
rclavicle -4.532764601486312e-16 -7.764111845935092e-16
rhumerus -35.32631367119044 -28.460197423925656 -71.91425868118833
rradius 20.667474151354796
rwrist 10.482569613128558
rhand -18.36380842015246 20.99812172964178
rfingers 7.12502
rthumb 8.045742489693184 -8.656137484499826
29
root -0.0034184145182158954 18.100994087744393 2.6364049809638654 -3.593610670891999 1.2896970813297188 -3.2538964622876634
lfemur 2.74748519290552 -4.156508163822286 -18.292709409388497
ltibia 48.59881682881302
lfoot 8.03764881512851 -15.908633705971873
ltoes -9.788568480422203
rfemur -18.07879923193634 4.5996078210689655 26.514542883255587
rtibia 28.93587451479636
rfoot -5.651579881826836 -2.570373831468894
rtoes 10.172974868809199
lowerback 9.321607049441358 -1.9007937662142027 1.0727960441867805
upperback -0.031268336722022685 -2.2365890359740375 2.5366791094832126
thorax -4.93174374494887 -1.1216940872721586 2.7942153570984285
lowerneck -16.406907441599042 -2.753352639408519 -1.8185309493518707
upperneck 22.287032371230463 -3.369790546265954 -0.3095302155111991
head 9.861463152051462 -1.7463456595231373 -0.23851161877365912
lclavicle -4.522923933102467e-16 -7.758151035979726e-16
lhumerus -28.75367252359409 1.8361129323797751 82.39101677088188
lradius 27.403832638483387
lwrist 6.478987831808485
lhand -27.624963500259405 23.909269434827547
lfingers 7.12502
lthumb -1.41864296886015 52.87068368387617
rclavicle -4.542842689327279e-16 -7.771901698797345e-16
rhumerus -34.59683495694644 -27.394018904313114 -72.84718521095732
rradius 20.958351692452105
rwrist 9.664306551911524
rhand -18.132658429327634 21.782588406032424
rfingers 7.12502
rthumb 8.12260203336101 -8.358960862603151
30
root -0.07692101456796596 18.15899180072129 3.453638658328572 -3.6606066079521513 0.7044709169350885 -3.7279833046078403
lfemur -2.444131716642418 -3.0308309768591313 -17.089946454335056
ltibia 55.97231388752334
lfoot 8.732496557000019 -15.845853625955861
ltoes -2.2598920824759032
rfemur -14.818828106479243 4.698447168707068 28.0520171734397
rtibia 28.498822564540546
rfoot -6.942857044827393 -3.497690202063018
rtoes 10.61784058866927
lowerback 9.569998000587459 -1.6089250466616574 1.7689639871963254
upperback 0.03309529168745946 -1.7902126108250183 2.5837437183867067
thorax -5.067307389150121 -0.9330952580414195 2.3299307907914706
lowerneck -16.289744032044297 -2.8361184969181177 -1.8164706174438365
upperneck 22.25193490214078 -3.5251086932602305 -0.134229708974258
head 9.837344977078452 -1.8049266256973777 -0.20404041363338726
lclavicle -4.502650424015028e-16 -7.743211886231669e-16
lhumerus -29.658972294141766 2.7256468219728966 82.0634479394523
lradius 26.22501584424714
lwrist 5.306859030231393
lhand -27.831890131282286 23.47153685451368
lfingers 7.12502
lthumb -1.1237667634733666 53.71541211284914
rclavicle -4.552170702421775e-16 -7.779118732375461e-16
rhumerus -33.28028110751826 -25.740095241869938 -74.27232201972205
rradius 21.33689687701846
rwrist 9.015160022003094
rhand -17.64055022936345 22.509164533281073
rfingers 7.12502
rthumb 8.62106559383061 -7.9919341136779085
31
root -0.1368698035842692 18.20055191866901 4.344126761302261 -3.862090799269154 0.444476381878816 -4.4263855611454055
lfemur -7.844664802934693 -1.5983382940343422 -16.057249983251836
ltibia 61.29029723703607
lfoot 0.5915330664083447 -12.123246232778765
ltoes -9.536413691549996
rfemur -11.672312870855455 5.000187687930074 29.1747063973864
rtibia 28.125489688287743
rfoot -8.280466600240903 -4.332035585795195
rtoes 10.85110282650346
lowerback 9.71489022994168 -1.2817226301322453 2.575052219845455
upperback 0.13527846864631227 -1.2474081799534629 2.540932913097219
thorax -5.040113310188518 -0.6623084315082406 1.9089678003584314
lowerneck -16.175691338696627 -2.9435836845691905 -1.85117429857495
upperneck 22.148827210588387 -3.7157200745618075 0.15144406030824087
head 9.75855850244334 -1.8667963467212103 -0.12114521566620144
lclavicle -4.512964761486142e-16 -7.750488498607113e-16
lhumerus -30.435686749079522 4.161791670310479 81.45533390521089
lradius 25.003158001930508
lwrist 4.048377420339895
lhand -27.353952042720742 23.84580921346831
lfingers 7.12502
lthumb -0.8023277347076813 53.60462424435685
rclavicle -4.551966366924846e-16 -7.778958721435635e-16
rhumerus -31.578320653365154 -23.82991747738926 -75.7621182909796
rradius 21.543394494159926
rwrist 8.774879801155258
rhand -17.148179868744723 22.755775434484498
rfingers 7.12502
rthumb 9.123420918699164 -7.414433827298701
32
root -0.18696742893431584 18.22586509100468 5.202220761772752 -3.8512337245508848 -0.2460123854307208 -5.006231905021071
lfemur -12.912876815736489 0.011737984612333108 -15.551123746494111
ltibia 64.02058765237827
lfoot -4.311018375253594 -9.517516718492377
ltoes -12.746650689252938
rfemur -8.954693356532593 5.454412902842694 30.272182951503897
rtibia 27.95957255520004
rfoot -9.658293054355084 -4.7885491700894605
rtoes 9.889020391178967
lowerback 9.717701018410976 -0.8134984258717131 3.442464490708039
upperback 0.16420631556765058 -0.5334138843140224 2.434640299760786
thorax -5.101058382209858 -0.32887634289664003 1.3896786524894733
lowerneck -16.05595424003043 -3.023876463543237 -1.863343790645953
upperneck 22.037260636332306 -3.8809353130141835 0.39831275628911594
head 9.673627890357471 -1.9169384128810791 -0.060717530490339344
lclavicle -4.485796045085877e-16 -7.732447931656117e-16
lhumerus -31.379738766721253 5.51836514817921 80.75535242280223
lradius 24.069096636864234
lwrist 3.2730602497903405
lhand -27.71733261064928 22.493862176047735
lfingers 7.12502
lthumb -0.8804984536713569 53.0176491807976
rclavicle -4.549083259461856e-16 -7.77672777580362e-16
rhumerus -29.82103463701349 -21.640493934275472 -77.19998118426639
rradius 21.98012639843075
rwrist 8.319989605306318
rhand -16.970904345169963 22.811451433376718
rfingers 7.12502
rthumb 9.293302508331653 -6.993023882434254
33
root -0.21238104980669903 18.219263427089306 6.023018477193942 -3.84908322747951 -1.3592263345586115 -5.292795947594989
lfemur -17.716910906800052 1.5584841625608798 -15.30386264973161
ltibia 64.58291513335772
lfoot -5.4130756990712765 -7.521078367717207
ltoes -8.685310279408673
rfemur -6.667836095090314 5.862356206490491 31.155996573226655
rtibia 28.477789302738245
rfoot -11.293260451821292 -5.148048902107537
rtoes 10.448973745352944
lowerback 9.852658434919006 -0.2129721228453108 4.2133710704675496
upperback 0.1573073282674475 0.3345471950717493 2.2739038616701963
thorax -5.164404106616329 0.08702019464432795 0.6735762537453868
lowerneck -15.988516054204414 -3.0953501893543107 -1.826819739860251
upperneck 21.885891372822037 -4.03968941193386 0.6112120064497036
head 9.603028503351908 -1.9638730847808896 -0.008560297269046016
lclavicle -4.50171178726248e-16 -7.740417461083366e-16
lhumerus -32.28132122191243 6.47866694841578 80.09551795427856
lradius 23.39101298315291
lwrist 3.2264654596742046
lhand -27.78899118991835 22.019427491573857
lfingers 7.12502
lthumb -1.187092424099939 52.69155844018043
rclavicle -4.553116291650645e-16 -7.779848253513664e-16
rhumerus -28.149793078264338 -18.950984206202055 -78.70094059616927
rradius 23.045499851420015
rwrist 6.4792509358456805
rhand -17.197559188223998 21.07884252741539
rfingers 7.12502
rthumb 9.137011069090606 -8.400833491939903
34
root -0.2238395295763298 18.15396326677792 6.910401886135267 -3.6498716858283924 -1.7508315442247215 -5.85816120516418
lfemur -22.0550671867097 2.488991643009777 -14.657025403551938
ltibia 63.14624748833907
lfoot -5.673649279268433 -5.351410633171491
ltoes -9.060256689173066
rfemur -4.872686651003196 5.97003015618607 32.084517430041466
rtibia 29.309050818270705
rfoot -12.7078489632915 -5.367959838574924
rtoes 9.078235036513483
lowerback 10.30389117490752 0.2205060920239976 5.23293695265209
upperback 0.09608273943862332 1.057232612588352 2.161539256415748
thorax -5.390247810716834 0.42666455326880154 -0.10044830123554793
lowerneck -16.010874293547232 -3.1495737172211116 -1.8448605099139346
upperneck 21.5570795102865 -4.164045443653674 0.8415960991820841
head 9.485641506687346 -1.994584220656496 0.04985492568865604
lclavicle -4.499554220100656e-16 -7.738298266717123e-16
lhumerus -33.053314345890364 7.116822044010378 79.65037813757841
lradius 22.760270060621565
lwrist 3.2266483352574555
lhand -27.75119901299258 20.991120385482144
lfingers 7.12502
lthumb -1.2273228151693185 51.15884619831125
rclavicle -4.558070797777855e-16 -7.783682563836169e-16
rhumerus -26.525980458550737 -15.912691287805837 -80.11789140893951
rradius 24.527046695666268
rwrist 4.4396674817964765
rhand -17.547271519935602 20.145561937127766
rfingers 7.12502
rthumb 8.78218193001315 -9.316135752161733
35
root -0.22470128848311854 18.082087854848883 7.528121845562113 -3.215436299417544 -2.470165274216792 -6.441330882847328
lfemur -25.527762876022422 3.3915878532442565 -13.94219111158566
ltibia 59.4482210600647
lfoot -6.8207920181769675 -2.7794382490805725
ltoes -9.493831101886432
rfemur -3.0200561218693878 6.07009456265518 33.02626356500324
rtibia 29.562633272684693
rfoot -13.194532716348178 -5.535790063590602
rtoes 8.630980343939248
lowerback 10.686252135623787 0.6670071291471199 6.198220756524916
upperback 0.06961751645562736 1.7405845076394637 2.0717432944503593
thorax -5.545798688005356 0.754472259209913 -0.8773762637043814
lowerneck -16.05236090554111 -3.170466179996918 -1.7706366209473092
upperneck 21.081966788334906 -4.227633761812724 0.9591292424362099
head 9.336738504483918 -2.003775756484076 0.0778475945104767
lclavicle -4.489208985691695e-16 -7.734472753872592e-16
lhumerus -33.79883327841249 7.733875005018019 79.30795753276303
lradius 22.24759177465338
lwrist 3.268300823387542
lhand -27.86773667178194 21.01528745612518
lfingers 7.12502
lthumb -1.14464691434519 51.619261901621876
rclavicle -4.571150812022586e-16 -7.793798201128594e-16
rhumerus -24.907739331590307 -12.946423352638028 -81.27249574002583
rradius 26.270077838424033
rwrist 2.478702210012285
rhand -17.805163365677796 20.424117296120748
rfingers 7.12502
rthumb 8.535087191279889 -9.177146426535218
